<svg xmlns="http://www.w3.org/2000/svg" width="20" height="20" viewBox="0 0 20 20"><defs><style>.a{fill:#aeaeae;}</style></defs><g transform="translate(0.58 -0.419)"><g transform="translate(-0.58 0.419)"><path class="a" d="M303.457,300.82l-4.576-4.577a8.809,8.809,0,0,1-2.645,2.644l4.577,4.577a1.87,1.87,0,0,0,2.644-2.644Z" transform="translate(-284.005 -284.012)"/><path class="a" d="M14.961,7.48a7.48,7.48,0,1,0-7.48,7.48A7.481,7.481,0,0,0,14.961,7.48Zm-7.48,5.61a5.61,5.61,0,1,1,5.61-5.61A5.616,5.616,0,0,1,7.481,13.09Z" transform="translate(-0.001)"/><path class="a" d="M75.817,80.179h1.247a3.12,3.12,0,0,1,3.117-3.117V75.816A4.369,4.369,0,0,0,75.817,80.179Z" transform="translate(-72.69 -72.689)"/></g></g></svg>