<svg xmlns="http://www.w3.org/2000/svg" width="13.799" height="18.514" viewBox="0 0 13.799 18.514"><defs><style>.a{fill:#727272;}</style></defs><g transform="translate(-52.016)"><g transform="translate(52.016)"><path class="a" d="M74.664,112.581a.932.932,0,0,0,.931.893h8.7a.932.932,0,0,0,.931-.893l.621-13.113h-11.8Zm7.248-9.856a.378.378,0,0,1,.378-.378H82.9a.379.379,0,0,1,.378.378v7.492a.378.378,0,0,1-.378.378H82.29a.378.378,0,0,1-.378-.378Zm-2.649,0a.378.378,0,0,1,.378-.378h.605a.378.378,0,0,1,.378.378v7.492a.378.378,0,0,1-.378.378h-.605a.378.378,0,0,1-.378-.378v-7.492Zm-2.649,0a.378.378,0,0,1,.378-.378H77.6a.378.378,0,0,1,.378.378v7.492a.378.378,0,0,1-.378.378h-.605a.378.378,0,0,1-.378-.378Z" transform="translate(-73.045 -94.96)"/><path class="a" d="M65.23.954H61.218V.2a.2.2,0,0,0-.2-.2H56.809a.2.2,0,0,0-.2.2V.954H52.6a.585.585,0,0,0-.585.585V3.375h13.8V1.538A.585.585,0,0,0,65.23.954Z" transform="translate(-52.016)"/></g></g></svg>