<svg xmlns="http://www.w3.org/2000/svg" width="32" height="25.875" viewBox="0 0 32 25.875"><defs><style>.a{fill:#727272;}</style></defs><g transform="translate(0 -3.057)"><g transform="translate(0 3.057)"><path class="a" d="M15.6,18.35h-.778a.731.731,0,0,1-.731-.73.556.556,0,0,1,.167-.4,5.249,5.249,0,0,0,1.109-1.67.313.313,0,0,0,.184.071c.437,0,.952-.966.952-1.624s-.061-1.192-.5-1.192a.674.674,0,0,0-.162.023c-.031-1.785-.482-4.013-3.208-4.013-2.844,0-3.176,2.223-3.208,4.007a.625.625,0,0,0-.117-.017c-.438,0-.5.534-.5,1.192s.513,1.624.951,1.624a.3.3,0,0,0,.151-.042,5.265,5.265,0,0,0,1.1,1.644.552.552,0,0,1,.167.4.732.732,0,0,1-.731.731H9.662a3.015,3.015,0,0,0-3.015,3.015V22.2a.952.952,0,0,0,.952.952H17.66a.952.952,0,0,0,.951-.952v-.836A3.014,3.014,0,0,0,15.6,18.35Z" transform="translate(-0.989 -3.046)"/><path class="a" d="M24.605,10.077H16.168a6.2,6.2,0,0,1,.49,2.023,1.225,1.225,0,0,1,.426.507h7.521a.7.7,0,0,0,.705-.705V10.782A.705.705,0,0,0,24.605,10.077Z" transform="translate(1.033 -3.044)"/><path class="a" d="M24.606,14.678H17.257a2.442,2.442,0,0,1-1.371,1.752c-.02.037-.043.069-.064.106v.671H24.6a.705.705,0,0,0,.705-.706V15.383A.7.7,0,0,0,24.606,14.678Z" transform="translate(1.032 -3.035)"/><path class="a" d="M24.6,19.279H18.863a3.851,3.851,0,0,1,.6,2.066v.464H24.6a.7.7,0,0,0,.705-.705V19.984A.7.7,0,0,0,24.6,19.279Z" transform="translate(1.038 -3.026)"/><path class="a" d="M27.668,3.057H4.333A4.333,4.333,0,0,0,0,7.39V24.6a4.332,4.332,0,0,0,4.333,4.333H27.668A4.332,4.332,0,0,0,32,24.6V7.39A4.332,4.332,0,0,0,27.668,3.057ZM29.955,24.6a2.29,2.29,0,0,1-2.287,2.287H4.333A2.29,2.29,0,0,1,2.046,24.6V7.39A2.29,2.29,0,0,1,4.333,5.1H27.668A2.29,2.29,0,0,1,29.955,7.39Z" transform="translate(0 -3.057)"/></g></g></svg>