<svg xmlns="http://www.w3.org/2000/svg" width="18.205" height="18.205" viewBox="0 0 18.205 18.205"><defs><style>.a{fill:#9e9e9e;}</style></defs><g transform="translate(0 -0.004)"><path class="a" d="M11.378,9.865a.758.758,0,0,0-.758.758v3.034a.759.759,0,0,1-.759.758H7.585V3.038A1.529,1.529,0,0,0,6.552,1.6l-.225-.075H9.861a.759.759,0,0,1,.759.759V4.555a.758.758,0,1,0,1.517,0V2.279A2.278,2.278,0,0,0,9.861,0H1.707A.6.6,0,0,0,1.626.02C1.589.017,1.554,0,1.517,0A1.519,1.519,0,0,0,0,1.521V15.174a1.529,1.529,0,0,0,1.033,1.442L5.6,18.138a1.57,1.57,0,0,0,.47.071,1.519,1.519,0,0,0,1.517-1.517v-.758H9.861a2.278,2.278,0,0,0,2.276-2.276V10.623a.758.758,0,0,0-.758-.758Zm0,0"/><path class="a" d="M285.454,109.922l-3.034-3.034a.758.758,0,0,0-1.295.536V109.7h-3.034a.758.758,0,1,0,0,1.517h3.034v2.276a.758.758,0,0,0,1.295.536l3.034-3.034a.758.758,0,0,0,0-1.073Zm0,0" transform="translate(-267.471 -102.869)"/></g></svg>