<svg xmlns="http://www.w3.org/2000/svg" width="16.608" height="18.531" viewBox="0 0 16.608 18.531"><defs><style>.a{fill:#727272;}</style></defs><g transform="translate(-26.57)"><g transform="translate(26.57)"><path class="a" d="M115.363,200.724a.724.724,0,0,0-.724-.724h-7.456a.724.724,0,1,0,0,1.448h7.456A.724.724,0,0,0,115.363,200.724Z" transform="translate(-103.568 -192.761)"/><path class="a" d="M107.183,280a.724.724,0,0,0,0,1.448h4.528a.724.724,0,1,0,0-1.448Z" transform="translate(-103.568 -269.866)"/><path class="a" d="M31.886,17.084H29.466a1.449,1.449,0,0,1-1.448-1.448V2.9a1.449,1.449,0,0,1,1.448-1.448h8.9A1.449,1.449,0,0,1,39.813,2.9V7.347a.724.724,0,1,0,1.448,0V2.9a2.9,2.9,0,0,0-2.9-2.9h-8.9a2.9,2.9,0,0,0-2.9,2.9v12.74a2.9,2.9,0,0,0,2.9,2.9h2.421a.724.724,0,0,0,0-1.448Z" transform="translate(-26.57)"/><path class="a" d="M251.58,272.659a2.174,2.174,0,0,0-3.071,0l-3.974,3.965a.724.724,0,0,0-.181.3l-.866,2.849a.724.724,0,0,0,.886.908l2.922-.809a.724.724,0,0,0,.318-.185l3.966-3.958A2.174,2.174,0,0,0,251.58,272.659Zm-4.854,5.871-1.47.407.43-1.416,2.682-2.676,1.024,1.024Zm3.831-3.823-.14.14-1.024-1.024.14-.139a.724.724,0,0,1,1.024,1.023Z" transform="translate(-235.607 -262.178)"/><path class="a" d="M114.639,120h-7.456a.724.724,0,1,0,0,1.448h7.456a.724.724,0,1,0,0-1.448Z" transform="translate(-103.568 -115.657)"/></g></g></svg>